<mxfile host="app.diagrams.net" modified="2023-05-03T23:46:00.418Z" agent="Mozilla/5.0 (Windows NT 10.0; Win64; x64) AppleWebKit/537.36 (KHTML, like Gecko) Chrome/111.0.0.0 Safari/537.36 OPR/97.0.0.0 (Edition std-1)" etag="rS_B4u6zbe1A3Qz5qFH1" version="21.2.7" type="device">
  <diagram name="Página-1" id="eraFyOt5bU_ge2Rh74fk">
    <mxGraphModel dx="991" dy="754" grid="1" gridSize="10" guides="1" tooltips="1" connect="1" arrows="1" fold="1" page="1" pageScale="1" pageWidth="827" pageHeight="1169" math="0" shadow="0">
      <root>
        <mxCell id="0" />
        <mxCell id="1" parent="0" />
        <mxCell id="mF3q0Rq8tJbmtWF1qKPC-9" style="edgeStyle=orthogonalEdgeStyle;rounded=0;orthogonalLoop=1;jettySize=auto;html=1;" parent="1" source="mF3q0Rq8tJbmtWF1qKPC-3" target="mF3q0Rq8tJbmtWF1qKPC-5" edge="1">
          <mxGeometry relative="1" as="geometry" />
        </mxCell>
        <mxCell id="mF3q0Rq8tJbmtWF1qKPC-3" value="Inicio" style="ellipse;whiteSpace=wrap;html=1;" parent="1" vertex="1">
          <mxGeometry x="10" y="520" width="80" height="50" as="geometry" />
        </mxCell>
        <mxCell id="mF3q0Rq8tJbmtWF1qKPC-17" style="edgeStyle=orthogonalEdgeStyle;rounded=0;orthogonalLoop=1;jettySize=auto;html=1;entryX=0;entryY=0.5;entryDx=0;entryDy=0;" parent="1" source="mF3q0Rq8tJbmtWF1qKPC-5" target="mF3q0Rq8tJbmtWF1qKPC-21" edge="1">
          <mxGeometry relative="1" as="geometry">
            <mxPoint x="210" y="470" as="targetPoint" />
          </mxGeometry>
        </mxCell>
        <mxCell id="mF3q0Rq8tJbmtWF1qKPC-18" style="edgeStyle=orthogonalEdgeStyle;rounded=0;orthogonalLoop=1;jettySize=auto;html=1;entryX=0;entryY=0.5;entryDx=0;entryDy=0;" parent="1" source="mF3q0Rq8tJbmtWF1qKPC-5" target="mF3q0Rq8tJbmtWF1qKPC-22" edge="1">
          <mxGeometry relative="1" as="geometry">
            <mxPoint x="210" y="610" as="targetPoint" />
          </mxGeometry>
        </mxCell>
        <mxCell id="mF3q0Rq8tJbmtWF1qKPC-5" value="usuário&lt;br&gt;possui conta?" style="rhombus;whiteSpace=wrap;html=1;" parent="1" vertex="1">
          <mxGeometry x="140" y="505" width="140" height="80" as="geometry" />
        </mxCell>
        <mxCell id="mF3q0Rq8tJbmtWF1qKPC-6" style="edgeStyle=orthogonalEdgeStyle;rounded=0;orthogonalLoop=1;jettySize=auto;html=1;exitX=0.5;exitY=1;exitDx=0;exitDy=0;" parent="1" source="mF3q0Rq8tJbmtWF1qKPC-3" target="mF3q0Rq8tJbmtWF1qKPC-3" edge="1">
          <mxGeometry relative="1" as="geometry" />
        </mxCell>
        <mxCell id="mF3q0Rq8tJbmtWF1qKPC-19" value="Não" style="text;html=1;strokeColor=none;fillColor=none;align=center;verticalAlign=middle;whiteSpace=wrap;rounded=0;" parent="1" vertex="1">
          <mxGeometry x="200" y="410" width="60" height="30" as="geometry" />
        </mxCell>
        <mxCell id="mF3q0Rq8tJbmtWF1qKPC-20" value="Sim" style="text;html=1;strokeColor=none;fillColor=none;align=center;verticalAlign=middle;whiteSpace=wrap;rounded=0;" parent="1" vertex="1">
          <mxGeometry x="210" y="650" width="60" height="30" as="geometry" />
        </mxCell>
        <mxCell id="TnF8aTyG_mfoWACl2fjc-5" style="edgeStyle=orthogonalEdgeStyle;rounded=0;orthogonalLoop=1;jettySize=auto;html=1;entryX=0;entryY=0.5;entryDx=0;entryDy=0;" edge="1" parent="1" source="mF3q0Rq8tJbmtWF1qKPC-21" target="TnF8aTyG_mfoWACl2fjc-4">
          <mxGeometry relative="1" as="geometry" />
        </mxCell>
        <mxCell id="TnF8aTyG_mfoWACl2fjc-14" style="edgeStyle=orthogonalEdgeStyle;rounded=0;orthogonalLoop=1;jettySize=auto;html=1;entryX=0;entryY=0.5;entryDx=0;entryDy=0;" edge="1" parent="1" source="mF3q0Rq8tJbmtWF1qKPC-21" target="TnF8aTyG_mfoWACl2fjc-12">
          <mxGeometry relative="1" as="geometry" />
        </mxCell>
        <mxCell id="mF3q0Rq8tJbmtWF1qKPC-21" value="Deseja criar conta?" style="rhombus;whiteSpace=wrap;html=1;" parent="1" vertex="1">
          <mxGeometry x="260" y="400" width="140" height="80" as="geometry" />
        </mxCell>
        <mxCell id="mF3q0Rq8tJbmtWF1qKPC-22" value="Deseja criar conta?" style="rhombus;whiteSpace=wrap;html=1;" parent="1" vertex="1">
          <mxGeometry x="260" y="640" width="140" height="80" as="geometry" />
        </mxCell>
        <mxCell id="TnF8aTyG_mfoWACl2fjc-4" value="" style="rounded=0;whiteSpace=wrap;html=1;" vertex="1" parent="1">
          <mxGeometry x="390" y="310" width="120" height="60" as="geometry" />
        </mxCell>
        <mxCell id="TnF8aTyG_mfoWACl2fjc-6" value="Não" style="text;html=1;strokeColor=none;fillColor=none;align=center;verticalAlign=middle;whiteSpace=wrap;rounded=0;" vertex="1" parent="1">
          <mxGeometry x="330" y="310" width="60" height="30" as="geometry" />
        </mxCell>
        <mxCell id="TnF8aTyG_mfoWACl2fjc-8" value="Entrar como visitante" style="text;html=1;strokeColor=none;fillColor=none;align=center;verticalAlign=middle;whiteSpace=wrap;rounded=0;" vertex="1" parent="1">
          <mxGeometry x="410" y="325" width="80" height="30" as="geometry" />
        </mxCell>
        <mxCell id="TnF8aTyG_mfoWACl2fjc-12" value="" style="rounded=0;whiteSpace=wrap;html=1;" vertex="1" parent="1">
          <mxGeometry x="390" y="525" width="120" height="60" as="geometry" />
        </mxCell>
        <mxCell id="TnF8aTyG_mfoWACl2fjc-13" value="Tela de registro" style="text;html=1;strokeColor=none;fillColor=none;align=center;verticalAlign=middle;whiteSpace=wrap;rounded=0;" vertex="1" parent="1">
          <mxGeometry x="405" y="540" width="90" height="30" as="geometry" />
        </mxCell>
        <mxCell id="TnF8aTyG_mfoWACl2fjc-15" value="Sim" style="text;html=1;strokeColor=none;fillColor=none;align=center;verticalAlign=middle;whiteSpace=wrap;rounded=0;" vertex="1" parent="1">
          <mxGeometry x="330" y="525" width="60" height="30" as="geometry" />
        </mxCell>
      </root>
    </mxGraphModel>
  </diagram>
</mxfile>
